<svg xmlns="http://www.w3.org/2000/svg" xmlns:xlink="http://www.w3.org/1999/xlink" viewBox="0 0 414.71 278.74"><defs><style>.cls-1,.cls-7{fill:none;}.cls-1,.cls-2,.cls-3,.cls-5{stroke:#1d1d1b;}.cls-1{stroke-linecap:round;stroke-width:4.01px;}.cls-1,.cls-2,.cls-3,.cls-4,.cls-5,.cls-7{stroke-miterlimit:10;}.cls-2,.cls-5,.cls-8{fill:#fff;}.cls-2,.cls-3,.cls-4,.cls-7{stroke-width:4px;}.cls-3{fill:url(#Unbenannter_Verlauf_43);}.cls-4{fill:url(#Unbenannter_Verlauf_45);stroke:url(#Unbenannter_Verlauf_49);}.cls-5{stroke-width:2.24px;}.cls-6{fill:#1d1d1b;}.cls-7{stroke:url(#Unbenannter_Verlauf_49-2);}</style><linearGradient id="Unbenannter_Verlauf_43" x1="92.18" y1="139.37" x2="385.24" y2="139.37" gradientUnits="userSpaceOnUse"><stop offset="0.5" stop-color="#1d1d1b"/><stop offset="0.5" stop-color="#1d71b8"/></linearGradient><linearGradient id="Unbenannter_Verlauf_45" x1="144.73" y1="289.05" x2="492.73" y2="289.05" gradientUnits="userSpaceOnUse"><stop offset="0.5" stop-color="#d3a05c"/><stop offset="0.5" stop-color="#fff"/></linearGradient><linearGradient id="Unbenannter_Verlauf_49" x1="142.73" y1="289.05" x2="494.73" y2="289.05" gradientUnits="userSpaceOnUse"><stop offset="0.5" stop-color="#937141"/><stop offset="0.5" stop-color="#1d1d1b"/></linearGradient><linearGradient id="Unbenannter_Verlauf_49-2" x1="90.18" y1="139.37" x2="387.24" y2="139.37" xlink:href="#Unbenannter_Verlauf_49"/></defs><g id="Hintergrundebene"><path class="cls-1" d="M143.73,288.69c-11.88.9-24.06,13.53-24.73,35.33-.31,10-8.65,32.18-20,41.85a27.28,27.28,0,0,0-9.36,20.68" transform="translate(-80.02 -149.68)"/><rect class="cls-2" x="181.36" y="115.05" width="274.74" height="348.01" rx="39.93" transform="translate(527.76 -179.36) rotate(90)"/><rect class="cls-3" x="92.18" y="29.47" width="293.06" height="219.79" rx="12.46"/><path class="cls-4" d="M452.8,151.68H184.65a40,40,0,0,0-39.92,39.93V386.5a40,40,0,0,0,39.92,39.92H452.8a40,40,0,0,0,39.93-39.92V191.61A40,40,0,0,0,452.8,151.68ZM465.26,386.5A12.46,12.46,0,0,1,452.8,399H184.65A12.46,12.46,0,0,1,172.2,386.5V191.61a12.45,12.45,0,0,1,12.45-12.45H452.8a12.45,12.45,0,0,1,12.46,12.45Z" transform="translate(-80.02 -149.68)"/><circle class="cls-2" cx="398.97" cy="139.37" r="7.58"/><circle class="cls-5" cx="77.23" cy="139.37" r="4.25"/><path class="cls-6" d="M166.47,171.44a23.1,23.1,0,0,1,4.68-2.23c1.63-.6,3.28-1.11,4.94-1.61,3.33-.94,6.7-1.74,10.11-2.36a88.57,88.57,0,0,1,10.34-1.35c.88-.07,1.76-.11,2.65-.1.44,0,.88,0,1.33,0l1.37.08a10.12,10.12,0,0,1,1.39.17c.45.08,1,.16,1.37.25q1.22.28,2.46.54c3.32.71,6.68,1.29,10,1.83s6.75,1,10.13,1.44,6.78.75,10.18.94a67.58,67.58,0,0,0,10.26,0,46.13,46.13,0,0,1-10.26,1.49,100,100,0,0,1-10.39-.08,145.83,145.83,0,0,1-20.57-2.67c-.85-.18-1.7-.38-2.56-.59-.45-.12-.77-.14-1.16-.22a7.05,7.05,0,0,0-1.16-.16l-1.21-.09c-.4,0-.82,0-1.23,0-.83,0-1.67,0-2.51,0-3.35.08-6.74.46-10.12.83s-6.77.88-10.13,1.48c-1.69.28-3.36.62-5,1-.83.2-1.67.38-2.49.62l-1.23.35Z" transform="translate(-80.02 -149.68)"/><path class="cls-6" d="M222.24,161.82c3.27,0,6.48.1,9.69.25s6.38.33,9.57.51l9.55.57c3.19.18,6.38.34,9.65.59a43.33,43.33,0,0,1-9.62,1.75,69.12,69.12,0,0,1-9.76.09,76.91,76.91,0,0,1-9.67-1.19A53.53,53.53,0,0,1,222.24,161.82Z" transform="translate(-80.02 -149.68)"/><path class="cls-6" d="M156.37,397.4a37.11,37.11,0,0,0,5.93,4.68,69.29,69.29,0,0,0,6.51,3.78,64.14,64.14,0,0,0,13.93,5.36,39.15,39.15,0,0,0,7.25,1.12l1.82.06c.61,0,1.23,0,1.85-.06,1.24,0,2.49-.15,3.73-.23,5-.41,10-1.1,15-1.85s10-1.49,15.09-2.06c2.54-.27,5.09-.5,7.69-.56a37,37,0,0,1,7.79.56,110.06,110.06,0,0,1,14.82,3.87l7.22,2.41c1.19.41,2.4.81,3.6,1.18a29.16,29.16,0,0,0,3.67,1,50.17,50.17,0,0,1-7.5-1.35l-7.39-1.8a136.75,136.75,0,0,0-14.76-3,40.16,40.16,0,0,0-7.35-.24c-2.47.12-5,.42-7.45.75-5,.65-10,1.45-15,2.21s-10.08,1.38-15.2,1.71c-1.29,0-2.56.14-3.86.13-.64,0-1.29,0-1.94,0l-2-.11a18.36,18.36,0,0,1-2-.22c-.64-.11-1.3-.16-1.93-.31-1.28-.3-2.56-.55-3.79-1a52.57,52.57,0,0,1-7.25-2.71,71.14,71.14,0,0,1-6.79-3.62,65.33,65.33,0,0,1-6.28-4.39A32.41,32.41,0,0,1,156.37,397.4Z" transform="translate(-80.02 -149.68)"/><path class="cls-6" d="M220.79,418.55a17.58,17.58,0,0,1,3.65-1.45,38.47,38.47,0,0,1,3.78-.91,47.59,47.59,0,0,1,7.71-.83,40.64,40.64,0,0,1,7.78.49,18.19,18.19,0,0,1,7.37,2.7,55.25,55.25,0,0,0-7.56-.35c-2.5,0-5,.1-7.51.15l-7.55.18-3.81,0C223.37,418.53,222.1,418.52,220.79,418.55Z" transform="translate(-80.02 -149.68)"/><path class="cls-6" d="M276.56,408c3.15.54,6.19,1.28,9.21,2.08s6,1.66,9,2.56,5.93,1.83,8.89,2.77,5.9,1.87,9,2.69a32.94,32.94,0,0,1-9.51-.41,70.21,70.21,0,0,1-9.22-2.18,86.92,86.92,0,0,1-8.87-3.22A58.44,58.44,0,0,1,276.56,408Z" transform="translate(-80.02 -149.68)"/><path class="cls-6" d="M160.22,183.46a9.68,9.68,0,0,0-.95,1.87,16.82,16.82,0,0,0-.65,2c-.19.66-.31,1.35-.47,2s-.23,1.37-.35,2.05a67.92,67.92,0,0,0-.66,8.29,62.53,62.53,0,0,0,.3,8.23c.09.68.15,1.35.28,2l.16,1,.23.94a15,15,0,0,0,.58,1.79c.26.68.58,1.38.8,2.06a84.16,84.16,0,0,1,3.72,16.71,59.48,59.48,0,0,1,.5,8.55c0,.71-.06,1.43-.11,2.14a19.21,19.21,0,0,1-.25,2.14,14.15,14.15,0,0,1-1.21,4.1,25.82,25.82,0,0,0,.1-8.32c-.3-2.76-.79-5.51-1.34-8.24s-1.15-5.45-1.88-8.14-1.44-5.38-2.36-7.94c-.2-.67-.46-1.26-.7-1.9a17.8,17.8,0,0,1-.69-2.23l-.25-1.11-.16-1.1a20.36,20.36,0,0,1-.24-2.19,50.8,50.8,0,0,1,.19-8.64,49.68,49.68,0,0,1,1.56-8.45,31.94,31.94,0,0,1,1.47-4A11.7,11.7,0,0,1,160.22,183.46Z" transform="translate(-80.02 -149.68)"/><path class="cls-6" d="M151.56,228.65a60.12,60.12,0,0,1,4.85,12.17c1.13,4.25,2.06,8.65,1.35,13.38-.1.59-.29,1.19-.44,1.78l-.51,1.54-1,3.05c-.71,2-1.34,4.09-2,6.12s-1.33,4.09-1.92,6.15c-.31,1-.59,2.06-.83,3.11a11,11,0,0,0-.39,3.18,8.85,8.85,0,0,1-.43-3.28,30.3,30.3,0,0,1,.21-3.3q.39-3.27,1.1-6.47c.44-2.14,1-4.24,1.58-6.34.3-1.05.62-2.09.93-3.14l.5-1.55c.1-.46.24-.9.32-1.37a23,23,0,0,0,.14-6.06c-.14-2.09-.48-4.18-.81-6.29C153.41,237.13,152.45,232.93,151.56,228.65Z" transform="translate(-80.02 -149.68)"/><rect class="cls-7" x="92.18" y="29.47" width="293.06" height="219.79" rx="12.46"/><path class="cls-1" d="M155.5,288.4c5.64,2.42,19.09,13.08,4.61,35.94s-38.25,30.8-52.61,38.18a145.93,145.93,0,0,0-25.47,17" transform="translate(-80.02 -149.68)"/></g><g id="Logoebene"><path class="cls-8" d="M216.15,264.68h11.62v38.63h20v9.43H216.15Z" transform="translate(-80.02 -149.68)"/><path class="cls-8" d="M252.39,294.86c0-11.17,7-18.63,17.88-18.63,10.23,0,17.46,6.52,17.46,18.4v2.86h-24v.3c0,4.42,2.72,7.35,7.13,7.35,3,0,5.35-1.29,6.25-3.68l10.53.3c-1.31,7.09-7.53,11.66-17,11.66C259.29,313.42,252.39,306.41,252.39,294.86Zm24.66-4a6.25,6.25,0,0,0-6.55-6.32,6.57,6.57,0,0,0-6.8,6.32Z" transform="translate(-80.02 -149.68)"/><path class="cls-8" d="M293.62,276.7h11.15v6.57h.37c1.31-4.77,4.46-7.07,8.4-7.07a13.1,13.1,0,0,1,3.22.43v10a17.31,17.31,0,0,0-4.51-.61,6.88,6.88,0,0,0-7.16,7.18v19.57H293.62Z" transform="translate(-80.02 -149.68)"/><path class="cls-8" d="M332.93,312.74H321.45v-36h10.91v6.62h.4c1.6-4.39,5.63-7.09,11-7.09,7.58,0,12.53,5.42,12.51,13.54v23H344.75V292c0-4-2.13-6.38-5.77-6.38s-6,2.44-6.05,6.55Z" transform="translate(-80.02 -149.68)"/><path class="cls-8" d="M375,312.74H363.36V264.68H375Z" transform="translate(-80.02 -149.68)"/><path class="cls-8" d="M380.68,264.68H421.3v9.44H406.73v38.62H395.28V274.12h-14.6Z" transform="translate(-80.02 -149.68)"/></g></svg>